<?xml version="1.0" encoding="UTF-8"?>
<!-- Generator: Adobe Illustrator 14.0.0, SVG Export Plug-In . SVG Version: 6.00 Build 43363)  -->
<!DOCTYPE svg PUBLIC "-//W3C//DTD SVG 1.1//EN" "http://www.w3.org/Graphics/SVG/1.1/DTD/svg11.dtd">
<svg version="1.1" id="Layer_1" xmlns="http://www.w3.org/2000/svg" xmlns:xlink="http://www.w3.org/1999/xlink" x="0px" y="0px" width="320px" height="160px" viewBox="0 0 320 160" enable-background="new 0 0 320 160" xml:space="preserve">
<g>
	<path fill-rule="evenodd" clip-rule="evenodd" d="M102.683,44.378c-2.178-0.292-3.284,2.781-4.091,4.091   C90.696,61.292,83.417,77.967,76.773,92.79c-3.785,8.444-7.594,17.436-11.592,25.91c-3.71,7.865-7.048,18.65-16.364,21.137   c-4.139-4.485-3.27-10.288-2.045-18.409c2.035-13.498,7.573-28.224,12.273-42.275c3.497-10.452,6.657-20.242,10.91-30.001   c1.227-2.816,1.556-7.448,5.455-7.501c2.993,6.139-1.926,13.571-4.091,19.774c-4.528,12.973-8.637,25.985-12.955,40.229   c-3.106,10.248-6.008,18.92-7.501,31.365c4.147-3.336,5.884-8.815,8.183-13.636c11.01-23.092,21.503-48.346,34.092-71.595   c2.177-4.021,5.263-8.813,8.183-12.955c2.729-3.872,6.239-9.82,12.273-8.864c-1.422,13.844-7.212,27.635-11.592,40.911   c-0.39,1.181-0.344,2.344-0.682,3.41c-4.668,14.7-10.968,32.727-15.001,49.094c2.809-1.467,2.887-4.929,4.091-7.502   c12.73-27.195,26.456-56.519,42.956-81.822c2.503-3.837,4.706-8.404,8.864-13.637c2.528-3.18,8.609-10.421,13.638-8.864   c7.033,2.179,2.015,16.828,0,23.865c-10.542,36.815-26.555,76.942-35.457,113.87c0.115,3.523,0.33,7.146-2.045,8.182   c-2.365,0.547-2.621-1.017-4.772-0.682c0.715-23.887,8.53-42.231,15-61.366c1.362-4.03,2.575-7.895,4.091-12.274   c0.838-2.421,0.544-3.175,1.364-6.136c0.452-1.636,1.873-5.091,2.728-8.183c0.452-1.636,1.872-5.09,2.727-8.182   c3.804-13.752,13.405-30.375,13.637-47.047c-6.29,1.794-8.009,8.668-10.91,13.637c-17.578,30.104-32.453,65.232-51.139,95.459   c-2.651,4.29-4.862,10.926-10.91,11.591c-1.68-10.796,0.728-18.944,3.41-28.638c4.634-16.756,11.507-38.611,17.728-54.547   C101.667,46.217,101.317,45.027,102.683,44.378z"/>
	<path fill-rule="evenodd" clip-rule="evenodd" d="M189.961,23.241c-5.101,31.719-24.779,48.862-31.365,79.095   c4.253-4.378,6.699-10.365,10.228-15.683c5.34-8.052,10.826-17.831,22.501-19.774c0.019,0.664,0.835,0.529,1.363,0.682   c4.961,12.045-6.999,30.485,1.364,41.592c3.116-0.463,5.967-2.704,8.182-5.454c6.183-7.677,8.99-22.804,17.729-29.319   c6.236-4.65,18.786-3.898,17.047,7.5c-6.171,1.396-3.987-5.559-7.502-6.818c-11.595,7.041-16.777,20.496-19.772,36.138   c10.854-5.283,12.315-19.958,26.593-21.818c3.436,3.64,0.679,9.29,1.363,15.682c7.353,0.818,10.975-7.537,16.363-10.909   c0.663-4.314,2.602-9.396,4.093-13.637c1.359-3.871,1.949-9.778,7.5-9.545c2.327,5.318-1.526,11.533-3.409,17.047   c-2.061,6.025-3.496,12.056-5.456,17.728c0.208,3.162-0.007,5.903-1.363,7.5c-1.59,0-3.182,0-4.773,0   c-2.059-2.725,0.615-5.433,0.683-8.183c-3.671-0.092-8.254,6.154-13.637,5.455c-5.051-0.655-7.503-5.217-6.819-12.955   c-7.061,4.532-11.033,18.058-23.182,19.774c-2.061-1.805-4.687-3.043-4.093-7.501c-4.343,1.092-6.709,3.777-11.591,2.727   c-13.019-2.798-5.487-28.935-4.091-40.228c-11.648,9.47-19.845,22.696-27.274,38.865c-1.936,4.214-9.526,21.643-12.273,8.865   c-0.554-2.574,0.073-7.037,0.682-10.911c1.124-7.153,4.118-14.889,6.819-23.182c3.502-10.757,7.387-22.393,11.591-32.729   c3.731-9.175,10.26-25.807,16.365-31.365C186.542,21.659,188.862,21.84,189.961,23.241z"/>
	<path fill-rule="evenodd" clip-rule="evenodd" d="M162.687,49.151c-0.52,6.754-3.718,10.829-6.818,15   c-1.224,0.086-1.438-0.834-2.728-0.682C153.007,58.547,155.819,44.863,162.687,49.151z"/>
	<path fill-rule="evenodd" clip-rule="evenodd" d="M274.51,49.151c-0.52,6.754-3.717,10.829-6.818,15   c-1.223,0.086-1.438-0.834-2.727-0.682C264.83,58.547,267.644,44.863,274.51,49.151z"/>
	<path fill-rule="evenodd" clip-rule="evenodd" d="M155.187,72.334c-3.547,13.955-8.853,26.149-11.592,40.911   c-1.964-0.082-4.463,0.372-5.455-0.683c1.271-10.055,4.187-20.98,7.5-30.683c1.54-4.508,2.761-8.299,5.456-10.909   C153.453,70.431,153.974,71.729,155.187,72.334z"/>
</g>
</svg>